# xmcd CD database file
#
# Track frame offsets:
#	150
#	18616
#	39061
#	48935
#	71898
#	85048
#	94951
#	102306
#	119605
#	128274
#	148702
#	166676
#	188149
#
# Disc length: 2632 seconds
#
# Revision: 0
# Processed by: cddbd v1.5.2PL0 Copyright (c) Steve Scherf et al.
# Submitted via: CDex 1.70beta2
#
DISCID=a60a460d
DTITLE=Jukka Perko - Severi Pyysalo - Teemu Viinikainen - Kuunnelmia
DYEAR=2004
DGENRE=Jazz
TTITLE0=Tahdon
TTITLE1=Omistan aikaa
TTITLE2=Tuokio
TTITLE3=Olin nuori
TTITLE4=Kuunnelma
TTITLE5=Martin kitara
TTITLE6=T‰n‰‰n h‰n saapuu
TTITLE7=Jaksammeko jatkaa
TTITLE8=Tovi
TTITLE9=Uudella rajalla
TTITLE10=Kaituri
TTITLE11=Ja kuitenkin
TTITLE12=Hyv‰sti
EXTD=YEAR: 2004
EXTT0=
EXTT1=
EXTT2=
EXTT3=
EXTT4=
EXTT5=
EXTT6=
EXTT7=
EXTT8=
EXTT9=
EXTT10=
EXTT11=
EXTT12=
PLAYORDER=
